<?xml version="1.0" standalone="no"?>
<!DOCTYPE svg PUBLIC "-//W3C//DTD SVG 20010904//EN"
        "http://www.w3.org/TR/2001/REC-SVG-20010904/DTD/svg10.dtd">
<svg version="1.0" xmlns="http://www.w3.org/2000/svg"
     width="400.000000pt" height="400.000000pt" viewBox="0 0 400.000000 400.000000"
     preserveAspectRatio="xMidYMid meet">

    <g transform="translate(0.000000,400.000000) scale(0.100000,-0.100000)"
       fill="#000000" stroke="none">
        <path d="M1910 3849 c-617 -67 -1131 -447 -1409 -1042 -234 -499 -238 -1189
-9 -1746 108 -262 278 -491 472 -638 249 -186 585 -286 911 -270 414 21 810
197 1136 504 340 321 602 855 674 1378 23 160 16 477 -13 610 -65 298 -191
535 -391 735 -236 236 -562 397 -921 455 -121 19 -340 27 -450 14z m430 -665
c388 -67 686 -307 772 -621 31 -116 31 -318 0 -428 -81 -283 -316 -505 -632
-596 -90 -26 -217 -47 -332 -55 l-98 -7 0 -71 c-1 -165 -47 -227 -192 -256
-109 -21 -163 16 -178 121 -11 83 -36 1136 -27 1170 19 73 117 119 257 119 74
0 92 -3 121 -23 59 -40 62 -60 50 -424 -6 -177 -11 -337 -11 -354 l0 -32 59 7
c193 22 442 144 537 262 90 113 119 201 119 360 l0 120 -42 86 c-118 237 -399
365 -752 343 -363 -23 -552 -101 -824 -340 -80 -70 -94 -79 -137 -83 -44 -4
-52 -1 -80 26 -60 61 -31 158 87 283 200 212 531 373 839 409 107 12 348 4
464 -16z m-423 -2175 c81 -30 134 -130 113 -210 -14 -53 -77 -106 -134 -114
-76 -12 -153 17 -186 70 -24 39 -27 123 -6 163 15 29 59 73 91 90 26 15 86 15
122 1z"/>
    </g>
</svg>
